<svg xmlns="http://www.w3.org/2000/svg" id="Layer_1" height="512" viewBox="0 0 512 512" width="512" data-name="Layer 1"><path d="m256.168 510.166c140.037 0 254-113.916 254-254 0-140.038-113.963-254-254-254-140.085 0-254 113.963-254 254 0 140.084 113.915 254 254 254zm-144.328-228.166a17.7 17.7 0 0 1 -15.7-17.54v-32.06a17.678 17.678 0 0 1 17.681-17.635h15.56a63.472 63.472 0 0 1 -5.611-25.932v-53.233a10 10 0 0 1 10-10h53.28a63.326 63.326 0 0 1 63.229 63.229v25.932h27.913l53.375-53.374a42.442 42.442 0 1 1 37.248 37.249l-16.172 16.125h40.078a17.668 17.668 0 0 1 17.629 17.639v32.062a17.7 17.7 0 0 1 -15.7 17.54v8.676a78.24 78.24 0 0 1 -56.769 75.158v15.041a17.467 17.467 0 0 1 -17.446 17.446h-134.335a17.467 17.467 0 0 1 -17.446-17.446v-15.039a78.226 78.226 0 0 1 -56.814-75.158zm206.048 96.329h-129.24v-9.572c.424 0 .849.048 1.32.048h126.6c.424 0 .848-.048 1.32-.048zm-1.32-29.516h-126.6a58.2 58.2 0 0 1 -58.136-58.137v-8.535h242.825v8.535a58.155 58.155 0 0 1 -58.089 58.137zm32.863-177a10.049 10.049 0 0 0 2.594-9.618 22.418 22.418 0 0 1 37.532-21.6 22.452 22.452 0 0 1 -21.6 37.58 10.08 10.08 0 0 0 -9.619 2.593l-33.948 34h-17.913l42.954-42.954zm-205.67 17.022v-43.235h43.284a43.325 43.325 0 0 1 43.237 43.238v25.932h-3.206l-5.847-5.893-4.244-39.136a10 10 0 1 0 -19.9 2.122l1.6 14.476-17.485-17.496a10 10 0 0 0 -14.145 14.145l.236.283-10.279-1.132a10.008 10.008 0 0 0 -2.169 19.9l34.231 3.677a3.514 3.514 0 0 0 .708.048l9 9h-46.3a43.363 43.363 0 0 1 -8.722-25.932zm-27.583 45.924h274.18v27.348h-274.18z" fill-rule="evenodd" fill="#4a2e2d"/></svg>