<svg xmlns="http://www.w3.org/2000/svg" clip-rule="evenodd" fill-rule="evenodd" height="512" image-rendering="optimizeQuality" shape-rendering="geometricPrecision" text-rendering="geometricPrecision" viewBox="0 0 850 850" width="512"><g id="Layer_x0020_1"><circle cx="425" cy="425" fill="#4a2e2d" r="425"/><g id="_596385424"><g><g><path d="m549 584c-1 0-1 0-1 0-2 0-4-1-5-3l-44-56c-3-3-2-8 1-10l19-16c2-1 3-1 5-1 3 0 4 1 5 3l25 31 68-54c2-1 4-1 6-1s3 1 5 3l15 19c2 3 1 8-2 10l-93 73c-2 1-3 2-4 2zm-35-62 35 44 82-64-6-8-68 54c-1 1-3 1-5 1s-4-1-5-3l-25-31z" fill="#fff"/></g><g><path d="m573 638c-59 0-108-48-108-108 0-59 49-108 108-108 60 0 108 48 108 108s-48 108-108 108zm0-201c-51 0-93 42-93 93s42 93 93 93 93-42 93-93-42-93-93-93z" fill="#fff"/></g><g><path d="m335 594h-41c-4 0-7-3-7-8v-40c0-5 3-8 7-8h41c4 0 8 3 8 8v40c0 5-4 8-8 8zm-33-15h26v-26h-26z" fill="#fff"/></g><g><path d="m335 506h-41c-4 0-7-3-7-7v-41c0-4 3-8 7-8h41c4 0 8 4 8 8v41c0 4-4 7-8 7zm-33-14h26v-27h-26z" fill="#fff"/></g><g><path d="m335 419h-41c-4 0-7-3-7-7v-41c0-4 3-8 7-8h41c4 0 8 4 8 8v41c0 4-4 7-8 7zm-33-14h26v-27h-26z" fill="#fff"/></g><g><path d="m335 332h-41c-4 0-7-4-7-8v-40c0-5 3-8 7-8h41c4 0 8 3 8 8v40c0 4-4 8-8 8zm-33-15h26v-26h-26z" fill="#fff"/></g><g><path d="m462 588h-87c-4 0-7-4-7-8s3-7 7-7h87c4 0 7 3 7 7s-3 8-7 8z" fill="#fff"/></g><g><path d="m454 559h-58c-4 0-8-4-8-8s4-7 8-7h58c4 0 8 3 8 7s-4 8-8 8z" fill="#fff"/></g><g><path d="m457 500h-82c-4 0-7-3-7-7s3-8 7-8h82c5 0 8 4 8 8s-4 7-8 7z" fill="#fff"/></g><g><path d="m469 471h-74c-4 0-7-3-7-7s3-8 7-8h74c4 0 8 4 8 8s-4 7-8 7z" fill="#fff"/></g><g><path d="m564 326h-189c-4 0-7-4-7-8s3-7 7-7h189c5 0 8 3 8 7s-4 8-8 8z" fill="#fff"/></g><g><path d="m537 296h-134c-4 0-8-3-8-7s4-8 8-8h134c4 0 7 4 7 8s-3 7-7 7z" fill="#fff"/></g><g><path d="m564 413h-189c-4 0-7-3-7-8 0-4 3-7 7-7h189c5 0 8 3 8 7 0 5-4 8-8 8z" fill="#fff"/></g><g><path d="m537 384h-134c-4 0-8-3-8-7s4-8 8-8h134c4 0 7 4 7 8s-3 7-7 7z" fill="#fff"/></g><g><path d="m574 667h-288c-20 0-36-16-36-36v-360c0-4 4-7 8-7s7 3 7 7v360c0 12 10 22 21 22h288c9 0 17-6 20-15v-11c0-4 3-8 7-8 5 0 8 4 8 8v13c0 1 0 1-1 2-5 15-19 25-34 25zm28-226c-4 0-7-3-7-7v-215c0-12-10-21-21-21h-357c-4 0-8-3-8-8 0-4 4-7 8-7h357c19 0 35 16 35 36v215c1 4-3 7-7 7z" fill="#fff"/></g><g><path d="m258 485h-81c-5 0-8-3-8-8v-246c0-26 22-48 48-48s48 21 48 48v247c0 4-4 7-7 7zm-74-15h66v-239c0-18-15-33-33-33s-33 15-33 33z" fill="#fff"/></g><g><path d="m524 246h-188c-5 0-8-3-8-7 0-5 3-8 8-8h188c5 0 8 3 8 8 0 4-3 7-8 7z" fill="#fff"/></g></g></g></g></svg>