<svg xmlns="http://www.w3.org/2000/svg" width="30" height="30" viewBox="0 0 30 30" fill="none">
<path d="M26.1134 16.5685C25.7942 16.5685 25.4605 16.467 25.1413 16.3944C24.4954 16.25 23.8604 16.0609 23.2406 15.8286C22.5676 15.5837 21.8277 15.5964 21.1634 15.8643C20.4991 16.1321 19.9574 16.6362 19.6424 17.2795L19.3232 17.9469C17.9142 17.1477 16.6124 16.1727 15.4494 15.0451C14.3218 13.882 13.3467 12.5803 12.5476 11.1712L13.215 10.8665C13.8583 10.5516 14.3623 10.0098 14.6302 9.34555C14.898 8.68128 14.9108 7.94141 14.6659 7.26833C14.4355 6.64304 14.2464 6.00326 14.1 5.35315C14.0275 5.03396 13.9695 4.70025 13.9259 4.38106C13.7497 3.35908 13.2145 2.43359 12.4165 1.77125C11.6185 1.10892 10.6102 0.753263 9.57326 0.76834H5.20608C4.59271 0.767536 3.9861 0.896378 3.42601 1.14642C2.86592 1.39646 2.365 1.76205 1.95609 2.21923C1.5387 2.68882 1.22791 3.2432 1.04508 3.84428C0.86225 4.44536 0.811712 5.0789 0.896939 5.70137C1.68562 11.7402 4.44467 17.3501 8.74625 21.6612C13.0574 25.9627 18.6672 28.7218 24.706 29.5105C24.8944 29.5249 25.0836 29.5249 25.2719 29.5105C26.3418 29.512 27.3748 29.1195 28.1737 28.4078C28.6309 27.9989 28.9964 27.498 29.2465 26.9379C29.4965 26.3778 29.6254 25.7712 29.6246 25.1578V20.8051C29.6167 19.8026 29.2631 18.8335 28.6234 18.0616C27.9836 17.2897 27.097 16.7623 26.1134 16.5685ZM26.8243 25.2739C26.8239 25.4763 26.781 25.6765 26.6986 25.8614C26.6161 26.0463 26.4959 26.2119 26.3456 26.3475C26.1865 26.4924 25.9973 26.6001 25.7915 26.6628C25.5858 26.7256 25.3686 26.7418 25.1558 26.7103C19.7415 26.0031 14.7098 23.5357 10.8355 19.6879C6.95799 15.8104 4.46907 10.7612 3.75519 5.32413C3.72367 5.11134 3.73987 4.8942 3.8026 4.68843C3.86533 4.48266 3.97304 4.29342 4.11791 4.1344C4.2552 3.98228 4.42315 3.86096 4.61071 3.77844C4.79827 3.69591 5.00118 3.65405 5.20608 3.65561H9.55875C9.89414 3.64741 10.222 3.7557 10.4865 3.96204C10.7511 4.16838 10.9359 4.46001 11.0096 4.78731C11.0096 5.17905 11.1402 5.58529 11.2273 5.97703C11.395 6.7371 11.618 7.48389 11.8947 8.21141L9.86344 9.16899C9.5143 9.32926 9.24298 9.62146 9.10898 9.98149C8.96386 10.3347 8.96386 10.7309 9.10898 11.0842C11.1971 15.5569 14.7925 19.1523 19.2652 21.2404C19.6184 21.3855 20.0146 21.3855 20.3679 21.2404C20.7279 21.1064 21.0201 20.8351 21.1804 20.4859L22.0944 18.4547C22.843 18.7276 23.6088 18.9506 24.3869 19.1221C24.7641 19.2092 25.1703 19.2817 25.5621 19.3397C25.8894 19.4134 26.181 19.5983 26.3873 19.8628C26.5937 20.1274 26.702 20.4552 26.6938 20.7906L26.8243 25.2739ZM18.2641 0.608742C17.9304 0.608742 17.5822 0.608742 17.2485 0.608742C16.8637 0.64145 16.5076 0.825679 16.2587 1.1209C16.0097 1.41612 15.8882 1.79816 15.9209 2.18296C15.9536 2.56776 16.1378 2.9238 16.4331 3.17277C16.7283 3.42174 17.1103 3.54323 17.4951 3.51052H18.2641C20.5729 3.51052 22.7871 4.42769 24.4197 6.06026C26.0523 7.69283 26.9694 9.90706 26.9694 12.2159C26.9694 12.477 26.9694 12.7237 26.9694 12.9848C26.9373 13.3676 27.0582 13.7475 27.3057 14.0412C27.5532 14.335 27.9071 14.5186 28.2897 14.5518H28.4058C28.769 14.5533 29.1196 14.4185 29.3882 14.174C29.6568 13.9295 29.824 13.5932 29.8567 13.2315C29.8567 12.8978 29.8567 12.5496 29.8567 12.2159C29.8567 9.13997 28.6358 6.18986 26.4622 4.01351C24.2886 1.83717 21.34 0.612587 18.2641 0.608742ZM21.1659 12.2159C21.1659 12.6007 21.3187 12.9697 21.5908 13.2418C21.8629 13.5139 22.232 13.6668 22.6168 13.6668C23.0016 13.6668 23.3706 13.5139 23.6427 13.2418C23.9148 12.9697 24.0677 12.6007 24.0677 12.2159C24.0677 10.6767 23.4562 9.2005 22.3678 8.11213C21.2795 7.02375 19.8033 6.4123 18.2641 6.4123C17.8793 6.4123 17.5103 6.56516 17.2382 6.83726C16.9661 7.10935 16.8132 7.47839 16.8132 7.86319C16.8132 8.24799 16.9661 8.61703 17.2382 8.88913C17.5103 9.16122 17.8793 9.31408 18.2641 9.31408C19.0337 9.31408 19.7718 9.61981 20.316 10.164C20.8602 10.7082 21.1659 11.4463 21.1659 12.2159Z" fill="#ebb20c"/>
</svg>