<svg xmlns="http://www.w3.org/2000/svg" width="59.902" height="57.596" viewBox="0 0 59.902 57.596">
  <g id="Group_527" data-name="Group 527" transform="translate(-739 -3338)">
    <g id="Group_58" data-name="Group 58" transform="translate(735.753 3333.33)">
      <path id="Path_11" data-name="Path 11" d="M6.163,31.136H29.3a1.166,1.166,0,0,0,1.163-1.163V6.833A1.166,1.166,0,0,0,29.3,5.67H6.163A1.166,1.166,0,0,0,5,6.833V29.973A1.166,1.166,0,0,0,6.163,31.136ZM7.326,8H28.141V28.811H7.326Z" transform="translate(0.001 0)" fill="#ebb20c"/>
      <path id="Path_12" data-name="Path 12" d="M45.833,5.67A12.733,12.733,0,1,0,58.566,18.4,12.744,12.744,0,0,0,45.833,5.67Zm0,23.141A10.407,10.407,0,1,1,56.241,18.4,10.419,10.419,0,0,1,45.833,28.811Z" transform="translate(4.577)" fill="#ebb20c"/>
      <path id="Path_13" data-name="Path 13" d="M34.262,57.456H57.4a1.167,1.167,0,0,0,1.012-.581,1.155,1.155,0,0,0,0-1.163L46.844,35.676a1.206,1.206,0,0,0-2.012,0L33.262,55.723a1.151,1.151,0,0,0,1,1.733Zm11.57-18.873,9.559,16.559H36.274Z" transform="translate(4.578 4.798)" fill="#ebb20c"/>
      <path id="Path_14" data-name="Path 14" d="M23.525,35.1H11.955a1.167,1.167,0,0,0-1.012.581L5.152,45.705a1.155,1.155,0,0,0,0,1.163l5.791,10.024a1.167,1.167,0,0,0,1.012.581h11.57a1.167,1.167,0,0,0,1.012-.581l5.791-10.024a1.155,1.155,0,0,0,0-1.163L24.537,35.681A1.2,1.2,0,0,0,23.525,35.1ZM22.85,55.136H12.617L7.5,46.275l5.117-8.861H22.85l5.117,8.861Z" transform="translate(0 4.793)" fill="#ebb20c"/>
    </g>
    <g id="Group_48" data-name="Group 48" transform="translate(734.005 3332.33)">
      <path id="Path_11-2" data-name="Path 11" d="M6.163,31.136H29.3a1.166,1.166,0,0,0,1.163-1.163V6.833A1.166,1.166,0,0,0,29.3,5.67H6.163A1.166,1.166,0,0,0,5,6.833V29.973A1.166,1.166,0,0,0,6.163,31.136ZM7.326,8H28.141V28.811H7.326Z" transform="translate(0.001 0)"/>
      <path id="Path_12-2" data-name="Path 12" d="M45.833,5.67A12.733,12.733,0,1,0,58.566,18.4,12.744,12.744,0,0,0,45.833,5.67Zm0,23.141A10.407,10.407,0,1,1,56.241,18.4,10.419,10.419,0,0,1,45.833,28.811Z" transform="translate(4.577)"/>
      <path id="Path_13-2" data-name="Path 13" d="M34.262,57.456H57.4a1.167,1.167,0,0,0,1.012-.581,1.155,1.155,0,0,0,0-1.163L46.844,35.676a1.206,1.206,0,0,0-2.012,0L33.262,55.723a1.151,1.151,0,0,0,1,1.733Zm11.57-18.873,9.559,16.559H36.274Z" transform="translate(4.578 4.798)"/>
      <path id="Path_14-2" data-name="Path 14" d="M23.525,35.1H11.955a1.167,1.167,0,0,0-1.012.581L5.152,45.705a1.155,1.155,0,0,0,0,1.163l5.791,10.024a1.167,1.167,0,0,0,1.012.581h11.57a1.167,1.167,0,0,0,1.012-.581l5.791-10.024a1.155,1.155,0,0,0,0-1.163L24.537,35.681A1.2,1.2,0,0,0,23.525,35.1ZM22.85,55.136H12.617L7.5,46.275l5.117-8.861H22.85l5.117,8.861Z" transform="translate(0 4.793)"/>
    </g>
  </g>
</svg>
