<svg xmlns="http://www.w3.org/2000/svg" width="53.604" height="52.82" viewBox="0 0 53.604 52.82">
  <g id="Group_528" data-name="Group 528" transform="translate(-745.299 -3528.281)">
    <path id="Path_20" data-name="Path 20" d="M45.014,9.677a.864.864,0,0,0,1.151,1.288,18.088,18.088,0,0,0,5.67-9.76A.864.864,0,0,0,50.81.18,18.227,18.227,0,0,0,36.9,13.863l-2.951,2.951A18.23,18.23,0,0,0,31.839,1.558a.864.864,0,0,0-1.45,0,18.228,18.228,0,0,0,0,19.776.865.865,0,0,0,1.186.261,16.508,16.508,0,0,1,16.674-.73A16.448,16.448,0,0,1,35.79,22.087a.863.863,0,0,0-.5,1.654,18.174,18.174,0,0,0,15.129-2.15.864.864,0,0,0,0-1.45,18.23,18.23,0,0,0-15.255-2.106c3.544-3.544,3.283-3.206,3.348-3.509a16.5,16.5,0,0,1,11.273-12.3,16.357,16.357,0,0,1-4.773,7.448Zm-13.9-5.945a16.511,16.511,0,0,1,0,15.43,16.511,16.511,0,0,1,0-15.43ZM44.292,31.58a23.129,23.129,0,0,0-20.317-2.353l4.755-4.755a.864.864,0,0,0-1.221-1.221l-4.755,4.755A23.13,23.13,0,0,0,20.4,7.688a.864.864,0,0,0-1.45,0,23.121,23.121,0,0,0-2.9,18.6.863.863,0,0,0,1.666-.453A21.4,21.4,0,0,1,19.675,9.832a21.4,21.4,0,0,1-.68,21.932l-8.463,8.463a27.8,27.8,0,0,0-.024-20.313.864.864,0,0,0-1.606.635,26.07,26.07,0,0,1-1.631,22.5A26.058,26.058,0,0,1,8,15.973a.864.864,0,0,0-1.45-.938,27.785,27.785,0,0,0-.372,29.55l-5.91,5.91a.864.864,0,0,0,1.221,1.221l6.329-6.329a26.057,26.057,0,0,1,27-.678,26.182,26.182,0,0,1-21.728,1.923.863.863,0,0,0-.583,1.625,27.775,27.775,0,0,0,24.439-2.823.864.864,0,0,0,0-1.45,27.793,27.793,0,0,0-25.189-2.538L19.8,33.4a23.121,23.121,0,0,0,24.492-.371.864.864,0,0,0,0-1.45ZM21.35,32.3a21.405,21.405,0,0,1,20.8,0A21.4,21.4,0,0,1,21.35,32.3Z" transform="translate(747.048 3529.121)" fill="#ebb20c"/>
    <path id="Path_15" data-name="Path 15" d="M45.014,9.677a.864.864,0,0,0,1.151,1.288,18.088,18.088,0,0,0,5.67-9.76A.864.864,0,0,0,50.81.18,18.227,18.227,0,0,0,36.9,13.863l-2.951,2.951A18.23,18.23,0,0,0,31.839,1.558a.864.864,0,0,0-1.45,0,18.228,18.228,0,0,0,0,19.776.865.865,0,0,0,1.186.261,16.508,16.508,0,0,1,16.674-.73A16.448,16.448,0,0,1,35.79,22.087a.863.863,0,0,0-.5,1.654,18.174,18.174,0,0,0,15.129-2.15.864.864,0,0,0,0-1.45,18.23,18.23,0,0,0-15.255-2.106c3.544-3.544,3.283-3.206,3.348-3.509a16.5,16.5,0,0,1,11.273-12.3,16.357,16.357,0,0,1-4.773,7.448Zm-13.9-5.945a16.511,16.511,0,0,1,0,15.43,16.511,16.511,0,0,1,0-15.43ZM44.292,31.58a23.129,23.129,0,0,0-20.317-2.353l4.755-4.755a.864.864,0,0,0-1.221-1.221l-4.755,4.755A23.13,23.13,0,0,0,20.4,7.688a.864.864,0,0,0-1.45,0,23.121,23.121,0,0,0-2.9,18.6.863.863,0,0,0,1.666-.453A21.4,21.4,0,0,1,19.675,9.832a21.4,21.4,0,0,1-.68,21.932l-8.463,8.463a27.8,27.8,0,0,0-.024-20.313.864.864,0,0,0-1.606.635,26.07,26.07,0,0,1-1.631,22.5A26.058,26.058,0,0,1,8,15.973a.864.864,0,0,0-1.45-.938,27.785,27.785,0,0,0-.372,29.55l-5.91,5.91a.864.864,0,0,0,1.221,1.221l6.329-6.329a26.057,26.057,0,0,1,27-.678,26.182,26.182,0,0,1-21.728,1.923.863.863,0,0,0-.583,1.625,27.775,27.775,0,0,0,24.439-2.823.864.864,0,0,0,0-1.45,27.793,27.793,0,0,0-25.189-2.538L19.8,33.4a23.121,23.121,0,0,0,24.492-.371.864.864,0,0,0,0-1.45ZM21.35,32.3a21.405,21.405,0,0,1,20.8,0A21.4,21.4,0,0,1,21.35,32.3Z" transform="translate(745.299 3528.121)"/>
  </g>
</svg>
