<svg xmlns="http://www.w3.org/2000/svg" width="55.339" height="77" viewBox="0 0 55.339 77">
  <g id="Group_525" data-name="Group 525" transform="translate(-146.949 -3338)">
    <path id="Path_22" data-name="Path 22" d="M102.151,10.5a17.241,17.241,0,1,0,12.191,21.116A17.262,17.262,0,0,0,102.151,10.5Zm9.927,20.51a14.9,14.9,0,1,1-10.534-18.246,14.8,14.8,0,0,1,10.534,18.246Zm9.794-9.66a1.93,1.93,0,0,1-.338-1.26l.252-4.043a4.329,4.329,0,0,0-2.429-4.207l-3.628-1.8a1.931,1.931,0,0,1-.923-.923L113,5.49A4.326,4.326,0,0,0,108.8,3.061l-4.043.252a1.926,1.926,0,0,1-1.261-.338L100.117.735a4.329,4.329,0,0,0-4.858,0l-3.376,2.24a1.924,1.924,0,0,1-1.261.338L86.58,3.061A4.332,4.332,0,0,0,82.373,5.49l-1.8,3.628a1.931,1.931,0,0,1-.923.923l-3.628,1.8a4.329,4.329,0,0,0-2.429,4.207l.252,4.043a1.93,1.93,0,0,1-.338,1.261l-2.24,3.375a4.329,4.329,0,0,0,0,4.858l2.24,3.376a1.93,1.93,0,0,1,.338,1.261l-.252,4.043a4.329,4.329,0,0,0,2.429,4.207l3.628,1.8a1.931,1.931,0,0,1,.923.923l1.8,3.628a4.477,4.477,0,0,0,.961,1.292l-7.8,16.722a1.172,1.172,0,0,0,1.607,1.532L86.988,63.2,89.35,74.066a1.172,1.172,0,0,0,1.015.916,1.192,1.192,0,0,0,.131.007,1.172,1.172,0,0,0,1.062-.677l6.131-13.149,6.131,13.148a1.172,1.172,0,0,0,1.062.677,1.154,1.154,0,0,0,.131-.007,1.172,1.172,0,0,0,1.015-.916L108.389,63.2l9.844,5.177a1.172,1.172,0,0,0,1.607-1.532l-7.8-16.723A4.46,4.46,0,0,0,113,48.828l1.8-3.628a1.931,1.931,0,0,1,.923-.923l3.628-1.8a4.33,4.33,0,0,0,2.429-4.207l-.252-4.043a1.93,1.93,0,0,1,.338-1.261l2.24-3.375a4.329,4.329,0,0,0,0-4.858ZM90.9,70.172l-1.951-8.977a1.172,1.172,0,0,0-1.691-.788L79.13,64.682l6.3-13.5a4.518,4.518,0,0,0,1.154.077L90.623,51a1.93,1.93,0,0,1,1.261.338l3.375,2.24a4.379,4.379,0,0,0,2.429.746,4.277,4.277,0,0,0,.623-.046Zm25.345-5.49-8.131-4.276a1.172,1.172,0,0,0-1.691.788l-1.951,8.977-5.493-11.78,2.738-5.872,1.773-1.177a1.921,1.921,0,0,1,1.26-.338l4.043.252a4.526,4.526,0,0,0,1.154-.078Zm5.912-36.39-2.24,3.375a4.243,4.243,0,0,0-.724,2.7l.252,4.043a2,2,0,0,1-1.133,1.963l-3.628,1.8a4.247,4.247,0,0,0-1.978,1.978l-1.8,3.628a1.992,1.992,0,0,1-1.962,1.133l-4.043-.252a4.236,4.236,0,0,0-2.7.724l-3.376,2.24a2,2,0,0,1-2.266,0L93.18,49.39a4.223,4.223,0,0,0-2.4-.734q-.15,0-.3.01l-4.043.252a1.993,1.993,0,0,1-1.963-1.133l-1.8-3.628a4.247,4.247,0,0,0-1.978-1.978l-3.628-1.8a1.994,1.994,0,0,1-1.133-1.963l.252-4.043a4.245,4.245,0,0,0-.724-2.7l-2.24-3.376a1.994,1.994,0,0,1,0-2.266l2.24-3.376a4.245,4.245,0,0,0,.724-2.7L75.929,15.9a2,2,0,0,1,1.133-1.963l3.628-1.8a4.247,4.247,0,0,0,1.978-1.978l1.8-3.628A2,2,0,0,1,86.434,5.4l4.043.252a4.244,4.244,0,0,0,2.7-.724l3.376-2.24a1.994,1.994,0,0,1,2.266,0l3.376,2.24a4.237,4.237,0,0,0,2.7.724l4.043-.252a1.993,1.993,0,0,1,1.963,1.133l1.8,3.628a4.247,4.247,0,0,0,1.978,1.978l3.628,1.8a1.994,1.994,0,0,1,1.133,1.962l-.252,4.043a4.243,4.243,0,0,0,.724,2.7l2.24,3.376a2,2,0,0,1,0,2.266ZM98.749,15.637a1.172,1.172,0,0,0-2.121,0l-3.114,6.628-7.266.913a1.172,1.172,0,0,0-.655,2.017l5.341,5.01L89.557,37.4a1.172,1.172,0,0,0,1.716,1.247l6.415-3.532,6.415,3.532A1.172,1.172,0,0,0,105.82,37.4l-1.377-7.193,5.341-5.01a1.172,1.172,0,0,0-.655-2.017l-7.266-.913Zm3.62,13.3a1.172,1.172,0,0,0-.349,1.075l1.029,5.377-4.8-2.64a1.172,1.172,0,0,0-1.13,0l-4.8,2.64,1.029-5.377a1.172,1.172,0,0,0-.349-1.075l-3.993-3.745,5.432-.683a1.172,1.172,0,0,0,.914-.664l2.328-4.955,2.328,4.955a1.172,1.172,0,0,0,.914.664l5.432.683Z" transform="translate(77.43 3340.011)" fill="#ebb20c"/>
    <path id="Path_21" data-name="Path 21" d="M102.151,10.5a17.241,17.241,0,1,0,12.191,21.116A17.262,17.262,0,0,0,102.151,10.5Zm9.927,20.51a14.9,14.9,0,1,1-10.534-18.246,14.8,14.8,0,0,1,10.534,18.246Zm9.794-9.66a1.93,1.93,0,0,1-.338-1.26l.252-4.043a4.329,4.329,0,0,0-2.429-4.207l-3.628-1.8a1.931,1.931,0,0,1-.923-.923L113,5.49A4.326,4.326,0,0,0,108.8,3.061l-4.043.252a1.926,1.926,0,0,1-1.261-.338L100.117.735a4.329,4.329,0,0,0-4.858,0l-3.376,2.24a1.924,1.924,0,0,1-1.261.338L86.58,3.061A4.332,4.332,0,0,0,82.373,5.49l-1.8,3.628a1.931,1.931,0,0,1-.923.923l-3.628,1.8a4.329,4.329,0,0,0-2.429,4.207l.252,4.043a1.93,1.93,0,0,1-.338,1.261l-2.24,3.375a4.329,4.329,0,0,0,0,4.858l2.24,3.376a1.93,1.93,0,0,1,.338,1.261l-.252,4.043a4.329,4.329,0,0,0,2.429,4.207l3.628,1.8a1.931,1.931,0,0,1,.923.923l1.8,3.628a4.477,4.477,0,0,0,.961,1.292l-7.8,16.722a1.172,1.172,0,0,0,1.607,1.532L86.988,63.2,89.35,74.066a1.172,1.172,0,0,0,1.015.916,1.192,1.192,0,0,0,.131.007,1.172,1.172,0,0,0,1.062-.677l6.131-13.149,6.131,13.148a1.172,1.172,0,0,0,1.062.677,1.154,1.154,0,0,0,.131-.007,1.172,1.172,0,0,0,1.015-.916L108.389,63.2l9.844,5.177a1.172,1.172,0,0,0,1.607-1.532l-7.8-16.723A4.46,4.46,0,0,0,113,48.828l1.8-3.628a1.931,1.931,0,0,1,.923-.923l3.628-1.8a4.33,4.33,0,0,0,2.429-4.207l-.252-4.043a1.93,1.93,0,0,1,.338-1.261l2.24-3.375a4.329,4.329,0,0,0,0-4.858ZM90.9,70.172l-1.951-8.977a1.172,1.172,0,0,0-1.691-.788L79.13,64.682l6.3-13.5a4.518,4.518,0,0,0,1.154.077L90.623,51a1.93,1.93,0,0,1,1.261.338l3.375,2.24a4.379,4.379,0,0,0,2.429.746,4.277,4.277,0,0,0,.623-.046Zm25.345-5.49-8.131-4.276a1.172,1.172,0,0,0-1.691.788l-1.951,8.977-5.493-11.78,2.738-5.872,1.773-1.177a1.921,1.921,0,0,1,1.26-.338l4.043.252a4.526,4.526,0,0,0,1.154-.078Zm5.912-36.39-2.24,3.375a4.243,4.243,0,0,0-.724,2.7l.252,4.043a2,2,0,0,1-1.133,1.963l-3.628,1.8a4.247,4.247,0,0,0-1.978,1.978l-1.8,3.628a1.992,1.992,0,0,1-1.962,1.133l-4.043-.252a4.236,4.236,0,0,0-2.7.724l-3.376,2.24a2,2,0,0,1-2.266,0L93.18,49.39a4.223,4.223,0,0,0-2.4-.734q-.15,0-.3.01l-4.043.252a1.993,1.993,0,0,1-1.963-1.133l-1.8-3.628a4.247,4.247,0,0,0-1.978-1.978l-3.628-1.8a1.994,1.994,0,0,1-1.133-1.963l.252-4.043a4.245,4.245,0,0,0-.724-2.7l-2.24-3.376a1.994,1.994,0,0,1,0-2.266l2.24-3.376a4.245,4.245,0,0,0,.724-2.7L75.929,15.9a2,2,0,0,1,1.133-1.963l3.628-1.8a4.247,4.247,0,0,0,1.978-1.978l1.8-3.628A2,2,0,0,1,86.434,5.4l4.043.252a4.244,4.244,0,0,0,2.7-.724l3.376-2.24a1.994,1.994,0,0,1,2.266,0l3.376,2.24a4.237,4.237,0,0,0,2.7.724l4.043-.252a1.993,1.993,0,0,1,1.963,1.133l1.8,3.628a4.247,4.247,0,0,0,1.978,1.978l3.628,1.8a1.994,1.994,0,0,1,1.133,1.962l-.252,4.043a4.243,4.243,0,0,0,.724,2.7l2.24,3.376a2,2,0,0,1,0,2.266ZM98.749,15.637a1.172,1.172,0,0,0-2.121,0l-3.114,6.628-7.266.913a1.172,1.172,0,0,0-.655,2.017l5.341,5.01L89.557,37.4a1.172,1.172,0,0,0,1.716,1.247l6.415-3.532,6.415,3.532A1.172,1.172,0,0,0,105.82,37.4l-1.377-7.193,5.341-5.01a1.172,1.172,0,0,0-.655-2.017l-7.266-.913Zm3.62,13.3a1.172,1.172,0,0,0-.349,1.075l1.029,5.377-4.8-2.64a1.172,1.172,0,0,0-1.13,0l-4.8,2.64,1.029-5.377a1.172,1.172,0,0,0-.349-1.075l-3.993-3.745,5.432-.683a1.172,1.172,0,0,0,.914-.664l2.328-4.955,2.328,4.955a1.172,1.172,0,0,0,.914.664l5.432.683Z" transform="translate(76.43 3338.011)"/>
  </g>
</svg>
