<?xml version="1.0" encoding="utf-8"?>
<!-- Generator: Adobe Illustrator 27.9.0, SVG Export Plug-In . SVG Version: 6.00 Build 0)  -->
<svg version="1.1" id="Layer_1" xmlns="http://www.w3.org/2000/svg" xmlns:xlink="http://www.w3.org/1999/xlink" x="0px" y="0px"
	 viewBox="0 0 300 300" style="enable-background:new 0 0 300 300;" xml:space="preserve">
<style type="text/css">
	.st0{opacity:0.97;}
	.st1{fill:#FFC64A;}
</style>
<g>
	<g>
		<g class="st0">
			<path d="M3.7,152.4c0,80.3,65.1,145.4,145.4,145.4s145.3-65.1,145.3-145.4C294.4,72.1,229.3,7,149.1,7C68.8,7,3.7,72.1,3.7,152.4
				z M111.1,199.2l47-47l-46.8-46.8c-5.3-5.3-5.3-13.9,0-19.2c5.3-5.3,13.9-5.3,19.2,0l54.3,54.3c0.8,0.5,1.6,1.1,2.3,1.8
				c2.7,2.7,4,6.3,4,9.8c0.1,3.6-1.2,7.1-4,9.8c-0.7,0.7-1.5,1.3-2.3,1.8l-54.6,54.5c-2.6,2.7-6.1,4-9.6,4c-3.5,0-6.9-1.3-9.6-4
				C105.8,213.1,105.8,204.5,111.1,199.2z"/>
			<circle cx="149.1" cy="152.4" r="136.3"/>
		</g>
		<g>
			<g>
				<g>
					<g>
						<path d="M-3.3,145.4c0,80.3,65.1,145.4,145.4,145.4s145.3-65.1,145.3-145.4C287.4,65.1,222.3,0,142.1,0
							C61.8,0-3.3,65.1-3.3,145.4z M104.1,192.2l47-47l-46.8-46.8c-5.3-5.3-5.3-13.9,0-19.2c5.3-5.3,13.9-5.3,19.2,0l54.3,54.3
							c0.8,0.5,1.6,1.1,2.3,1.8c2.7,2.7,4,6.3,4,9.8c0.1,3.6-1.2,7.1-4,9.8c-0.7,0.7-1.5,1.3-2.3,1.8l-54.6,54.5
							c-2.6,2.7-6.1,4-9.6,4c-3.5,0-6.9-1.3-9.6-4C98.8,206.1,98.8,197.5,104.1,192.2z"/>
					</g>
				</g>
				<circle class="st1" cx="142.1" cy="145.4" r="136.3"/>
			</g>
		</g>
	</g>
	<path d="M189.3,133.4l-70.6-70.6c-6.6-6.6-17.2-6.6-23.8,0c-6.6,6.6-6.6,17.2,0,23.8l58.8,58.8l-58.8,58.8
		c-6.6,6.6-6.6,17.2,0,23.8c3.2,3.2,7.5,4.9,11.8,4.9c4.3,0,8.6-1.7,11.8-4.9l70.6-70.6C195.8,150.6,195.8,140,189.3,133.4z"/>
</g>
</svg>
