<svg id="Icons" height="512" viewBox="0 0 60 60" width="512" xmlns="http://www.w3.org/2000/svg"><path d="m18.91 29.2c-.84 2.29-3.19 6.1-9.86 8.73a1.01 1.01 0 0 1 -1.38-.85c-.16-1.7-.88-4.53-3.76-5.46a.774.774 0 0 1 -.16-.07.993.993 0 0 1 -.43-1.2 7.433 7.433 0 0 0 .27-4.3 7.527 7.527 0 0 0 -2.26-3.68.974.974 0 0 1 -.07-1.39c2.1-2.18 1.41-5.01.75-6.59a1.006 1.006 0 0 1 .82-1.39c7.13-.81 10.99 1.45 12.8 3.08a6.908 6.908 0 0 0 -.15 3.91l1.21 4.85.24.97a6.942 6.942 0 0 0 1.98 3.39z" fill="#ff9801"/><path d="m58.31 18.06c-2.1 2.17-1.4 5.01-.75 6.59a1.009 1.009 0 0 1 -.82 1.39c-7.12.81-10.99-1.45-12.8-3.08a7.027 7.027 0 0 0 .16-3.92l-1.45-5.82a6.925 6.925 0 0 0 -1.98-3.37v-.01c.83-2.29 3.19-6.11 9.85-8.73a1.007 1.007 0 0 1 1.38.84c.17 1.7.88 4.53 3.76 5.46a.978.978 0 0 1 .59 1.27 7.48 7.48 0 0 0 -.26 4.31 7.412 7.412 0 0 0 2.25 3.67.977.977 0 0 1 .07 1.4z" fill="#ff9801"/><path d="m58.24 16.66a7.412 7.412 0 0 1 -2.25-3.67 7.48 7.48 0 0 1 .26-4.31.978.978 0 0 0 -.59-1.27c-2.88-.93-3.59-3.76-3.76-5.46a1.007 1.007 0 0 0 -1.38-.84c-.585.23-1.125.472-1.646.719a.963.963 0 0 1 .026.121c.17 1.7.88 4.53 3.76 5.46a.978.978 0 0 1 .59 1.27 7.48 7.48 0 0 0 -.26 4.31 7.412 7.412 0 0 0 2.25 3.67.977.977 0 0 1 .07 1.4c-2.1 2.17-1.4 5.01-.75 6.59a1.009 1.009 0 0 1 -.82 1.39q-.672.077-1.3.117a23.891 23.891 0 0 0 4.3-.117 1.009 1.009 0 0 0 .82-1.39c-.65-1.58-1.35-4.42.75-6.59a.977.977 0 0 0 -.07-1.4z" fill="#f57c00"/><path d="m58.24 43.37a7.187 7.187 0 0 0 -1.99 7.98.974.974 0 0 1 -.59 1.27c-2.88.93-3.59 3.76-3.76 5.46a1.007 1.007 0 0 1 -1.38.85c-6.66-2.63-9.02-6.44-9.85-8.73a6.988 6.988 0 0 0 1.98-3.39l.24-.97 1.21-4.85a7 7 0 0 0 -.16-3.91c1.81-1.63 5.68-3.89 12.8-3.08a1.006 1.006 0 0 1 .82 1.39c-.65 1.58-1.35 4.41.75 6.59a.965.965 0 0 1 -.07 1.39z" fill="#e91e63"/><path d="m58.31 41.98c-2.1-2.18-1.4-5.01-.75-6.59a1.006 1.006 0 0 0 -.82-1.39 23.8 23.8 0 0 0 -4.3-.117q.633.04 1.3.117a1.006 1.006 0 0 1 .82 1.39c-.65 1.58-1.35 4.41.75 6.59a.965.965 0 0 1 -.07 1.39 7.187 7.187 0 0 0 -1.99 7.98.974.974 0 0 1 -.59 1.27c-2.88.93-3.59 3.76-3.76 5.46a.88.88 0 0 1 -.027.128c.521.248 1.062.491 1.647.722a1.007 1.007 0 0 0 1.38-.85c.17-1.7.88-4.53 3.76-5.46a.974.974 0 0 0 .59-1.27 7.187 7.187 0 0 1 1.99-7.98.965.965 0 0 0 .07-1.39z" fill="#ad1457"/><path d="m43.94 22.96a7.008 7.008 0 0 1 -4.94 4.57l-7.04 1.75c6.59-7.19 7.25-17.38 7.3-20.47a6.5 6.5 0 0 1 1.41 1.04 6.9 6.9 0 0 1 1.67 2.42 7.534 7.534 0 0 1 .31.95l1.45 5.82a5.671 5.671 0 0 1 .16.99 6.856 6.856 0 0 1 -.32 2.93z" fill="#ffdf00"/><path d="m44.26 20.03a5.671 5.671 0 0 0 -.16-.99l-1.45-5.82a7.534 7.534 0 0 0 -.31-.95 6.9 6.9 0 0 0 -1.67-2.42 6.5 6.5 0 0 0 -1.41-1.04c-.011.67-.055 1.687-.178 2.92.091.177.181.354.258.54a7.534 7.534 0 0 1 .31.95l1.45 5.82a5.671 5.671 0 0 1 .16.99 6.856 6.856 0 0 1 -.32 2.93 7.008 7.008 0 0 1 -4.94 4.57l-3.242.806c-.26.317-.516.637-.8.944l7.042-1.75a7.008 7.008 0 0 0 4.94-4.57 6.856 6.856 0 0 0 .32-2.93z" fill="#fec108"/><path d="m39.26 8.81c-.05 3.09-.71 13.28-7.3 20.47l-2.96.74-.67.16-2.92.73a6.84 6.84 0 0 1 -3.76-.11c9.89-8.39 9.6-21.95 9.6-21.95l2.91-.73a6.934 6.934 0 0 1 5.1.69z" fill="#ffeb3a"/><path d="m21.65 30.8a7.656 7.656 0 0 1 -1.32-.55c-.13-.08-.26-.15-.38-.23a6.82 6.82 0 0 1 -1.04-.82 6.94 6.94 0 0 1 -1.67-2.43 7.681 7.681 0 0 1 -.31-.96l-.24-.97c7.03-4.84 6.8-14.06 6.8-14.06l7.76-1.93s.29 13.56-9.6 21.95z" fill="#ffdf00"/><path d="m16.69 24.84-1.21-4.85a7.1 7.1 0 0 1 .15-3.91 6.968 6.968 0 0 1 4.95-4.57l2.91-.73s.23 9.22-6.8 14.06z" fill="#ffeb3a"/><path d="m17.24 26.77-2.01.5a1.994 1.994 0 0 1 -2.42-1.46l-.97-3.88a2 2 0 0 1 1.45-2.42l2.02-.51a6.834 6.834 0 0 0 .17.99l1.21 4.85.24.97a7.681 7.681 0 0 0 .31.96z" fill="#ff5722"/><path d="m46.28 19.53-2.02.5a5.671 5.671 0 0 0 -.16-.99l-1.45-5.82a7.534 7.534 0 0 0 -.31-.95l2-.5a2 2 0 0 1 2.43 1.45l.97 3.88a2.017 2.017 0 0 1 -1.46 2.43z" fill="#ff5722"/><path d="m27.61 50.28-7.03-1.75a7.025 7.025 0 0 1 -4.95-4.57 6.946 6.946 0 0 1 -.15-3.92l1.45-5.82a6.965 6.965 0 0 1 3.02-4.2c.12.08.25.15.38.23.1 3.52.97 13.15 7.28 20.03z" fill="#e91e63"/><path d="m37.93 51.8a6.876 6.876 0 0 1 -3.77.11l-6.55-1.63c-6.31-6.88-7.18-16.51-7.28-20.03a7.656 7.656 0 0 0 1.32.55 6.84 6.84 0 0 0 3.76.11l2.92-.73c.03 2.14.63 14 9.6 21.62z" fill="#9d27b0"/><path d="m42.89 45.84-.24.97a6.007 6.007 0 0 1 -.32.96 6.96 6.96 0 0 1 -4.4 4.03c-8.97-7.62-9.57-19.48-9.6-21.62l.67-.16 7.09 1.76v.01c-.01.38-.09 9.31 6.8 14.05z" fill="#e91e63"/><path d="m44.26 40a5.671 5.671 0 0 1 -.16.99l-1.21 4.85c-6.89-4.74-6.81-13.67-6.8-14.05l2.91.72a6.99 6.99 0 0 1 4.94 4.57 6.81 6.81 0 0 1 .32 2.92z" fill="#9d27b0"/><path d="m43.94 37.08a6.99 6.99 0 0 0 -4.94-4.57l-2.91-.72c0 .058 0 .338.019.755a6.988 6.988 0 0 1 4.831 4.535 6.81 6.81 0 0 1 .32 2.92 5.671 5.671 0 0 1 -.16.99l-.669 2.68a13.978 13.978 0 0 0 2.459 2.17l1.21-4.85a5.671 5.671 0 0 0 .16-.99 6.81 6.81 0 0 0 -.32-2.92z" fill="#6a1b9a"/><path d="m47.74 42.93-.97 3.88a2.009 2.009 0 0 1 -2.43 1.46l-2.01-.5a6.007 6.007 0 0 0 .32-.96l.24-.97 1.21-4.85a5.671 5.671 0 0 0 .16-.99l2.02.51a2 2 0 0 1 1.46 2.42z" fill="#673ab7"/><path d="m19.95 30.02a6.965 6.965 0 0 0 -3.02 4.2l-1.45 5.82a6.834 6.834 0 0 0 -.17.99l-2.02-.5a2.011 2.011 0 0 1 -1.45-2.43l.43-1.71c4.25-2.42 5.95-5.32 6.64-7.19a6.82 6.82 0 0 0 1.04.82z" fill="#673ab7"/><path d="m15.63 43.96c-1.81 1.63-5.67 3.89-12.8 3.08a1.009 1.009 0 0 1 -.82-1.39c.66-1.58 1.35-4.42-.75-6.59a.986.986 0 0 1 .07-1.4 7.49 7.49 0 0 0 2.26-3.67 6.906 6.906 0 0 0 .16-2.44.774.774 0 0 0 .16.07c2.88.93 3.6 3.76 3.76 5.46a1.01 1.01 0 0 0 1.38.85 23.626 23.626 0 0 0 3.22-1.54l-.43 1.71a2.011 2.011 0 0 0 1.45 2.43l2.02.5a6.874 6.874 0 0 0 .32 2.93z" fill="#e91e63"/><path d="m59.573 17.344a2.018 2.018 0 0 0 -.657-1.423 6.459 6.459 0 0 1 -1.96-3.177 6.462 6.462 0 0 1 .238-3.725 2.017 2.017 0 0 0 -.088-1.567 1.919 1.919 0 0 0 -1.138-.991c-2.239-.724-2.905-2.9-3.069-4.607a2.011 2.011 0 0 0 -2.74-1.678c-6 2.363-8.686 5.718-9.885 8.08-.1-.066-.2-.138-.3-.2a7.951 7.951 0 0 0 -6.056-.9l-13.584 3.382a7.945 7.945 0 0 0 -4.922 3.642c-.062.1-.113.211-.17.317-2.167-1.523-6.109-3.224-12.522-2.497a2.01 2.01 0 0 0 -1.632 2.769c.654 1.58 1.091 3.818-.546 5.508a1.916 1.916 0 0 0 -.542 1.414 2.024 2.024 0 0 0 .657 1.423 6.452 6.452 0 0 1 1.96 3.177 6.469 6.469 0 0 1 -.238 3.725 2.022 2.022 0 0 0 .088 1.567 1.926 1.926 0 0 0 .3.429 5.818 5.818 0 0 1 -.144 1.735 6.491 6.491 0 0 1 -1.972 3.178 2.041 2.041 0 0 0 -.651 1.433 1.915 1.915 0 0 0 .54 1.4c1.73 1.788 1.085 4.22.547 5.509a1.985 1.985 0 0 0 .113 1.778 2.007 2.007 0 0 0 1.513.989 27.123 27.123 0 0 0 3.039.178 15.887 15.887 0 0 0 9.484-2.675c.058.105.108.213.17.317a7.966 7.966 0 0 0 4.933 3.646l13.578 3.38a8.034 8.034 0 0 0 1.958.243 7.893 7.893 0 0 0 2.463-.411h.006a7.99 7.99 0 0 0 1.63-.73c.1-.063.2-.134.3-.2 1.2 2.362 3.887 5.717 9.884 8.079a2.014 2.014 0 0 0 .742.139 2.014 2.014 0 0 0 2-1.821c.164-1.7.83-3.883 3.069-4.606a1.919 1.919 0 0 0 1.138-.991 2.017 2.017 0 0 0 .088-1.567 6.153 6.153 0 0 1 1.721-6.9 2.017 2.017 0 0 0 .658-1.423 1.916 1.916 0 0 0 -.541-1.411c-1.636-1.69-1.2-3.928-.545-5.509a2.011 2.011 0 0 0 -1.634-2.772c-6.4-.729-10.352.971-12.52 2.494-.058-.107-.109-.215-.172-.32a7.925 7.925 0 0 0 -4.921-3.637l-6.106-1.521 6.105-1.516a7.946 7.946 0 0 0 4.922-3.642c.062-.1.112-.21.169-.315a16.278 16.278 0 0 0 9.557 2.666 26.231 26.231 0 0 0 2.966-.175 2.01 2.01 0 0 0 1.632-2.769c-.654-1.579-1.09-3.817.546-5.507a1.918 1.918 0 0 0 .541-1.414zm-14.506 1.456-1.451-5.822.97-.242a1 1 0 0 1 .756.115.991.991 0 0 1 .456.613l.968 3.881a1 1 0 0 1 -.729 1.213zm-10.667-9.709a6.033 6.033 0 0 1 1.462-.18 5.942 5.942 0 0 1 2.378.5c-.122 3.46-1.033 12.477-6.832 18.978l-6.238 1.555a5.963 5.963 0 0 1 -1.32.174c7.413-7.445 8.294-17.561 8.388-20.487zm-19.889 30.709-.973-.24a1.017 1.017 0 0 1 -.727-1.217l.328-1.307a19.541 19.541 0 0 0 2.5-1.764zm6.915-10.138a6.182 6.182 0 0 1 -.795-.394 5.964 5.964 0 0 1 -2.731-3.695l-.084-.337c5.719-4.348 6.547-11.311 6.654-13.668l5.736-1.43c-.218 3.421-1.489 13.011-8.78 19.521zm-6.919-9.424 1.451 5.822-.971.242a1 1 0 0 1 -1.211-.728l-.967-3.882a1 1 0 0 1 .728-1.212zm6.311-7.757 1.6-.4c-.209 2.365-1.128 7.533-5.136 11.034l-.838-3.361a5.95 5.95 0 0 1 .13-3.342v-.009a6.049 6.049 0 0 1 .545-1.191 5.964 5.964 0 0 1 3.699-2.734zm-18.84 9.19c2.519-2.6 1.681-5.918.968-7.68 6.237-.71 9.789 1.063 11.545 2.437a7.868 7.868 0 0 0 -.215 1.8l-1.223.306a3 3 0 0 0 -2.186 3.636l.968 3.881a3.01 3.01 0 0 0 2.909 2.275 3.023 3.023 0 0 0 .728-.09l1.223-.3a7.882 7.882 0 0 0 1.037 1.492c-.029.064-.056.127-.087.194l-.009.018c-.969 2.045-3.316 5.136-8.971 7.349-.181-1.881-1-5.2-4.4-6.3a8.469 8.469 0 0 0 .3-4.885 8.013 8.013 0 0 0 -2.587-4.133zm.955 24.365c.728-1.744 1.573-5.06-.93-7.636a8.5 8.5 0 0 0 2.558-4.168 7.9 7.9 0 0 0 .179-1.062 5.527 5.527 0 0 1 1.935 4.011 2 2 0 0 0 2.74 1.677c.488-.192.95-.392 1.4-.6a3 3 0 0 0 2.235 3.242l1.227.3a7.86 7.86 0 0 0 .214 1.8c-1.753 1.381-5.308 3.154-11.558 2.436zm14.192-1.212a5.951 5.951 0 0 1 -.674-4.542l1.449-5.819a5.974 5.974 0 0 1 1.507-2.69c.275 3.958 1.393 10.927 5.578 16.827l-4.163-1.04a5.977 5.977 0 0 1 -3.697-2.736zm11.038 4.563c-5.136-5.752-6.443-13.4-6.753-17.614a7.879 7.879 0 0 0 2.3.352 8.065 8.065 0 0 0 1.95-.241l1.727-.431c.243 3.7 1.547 12.825 8.339 19.662a6.025 6.025 0 0 1 -1.326-.175zm10 1.266c-7.353-6.564-8.6-16.041-8.8-19.511l5.737 1.428c.108 2.36.938 9.323 6.659 13.668l-.082.329a5.981 5.981 0 0 1 -2.737 3.7 5.9 5.9 0 0 1 -.776.386zm5.457-3.6 1.448-5.816.968.241a1 1 0 0 1 .729 1.212l-.965 3.881a1 1 0 0 1 -1.212.728l-.967-.241zm13.019-12.046c-.724 1.746-1.562 5.065.931 7.626a8.466 8.466 0 0 0 -2.555 4.174 7.991 7.991 0 0 0 .338 4.863c-3.444 1.114-4.263 4.437-4.461 6.33-5.841-2.3-8.145-5.533-9.049-7.571a7.915 7.915 0 0 0 1.038-1.492l1.221.3a2.979 2.979 0 0 0 2.27-.341 2.975 2.975 0 0 0 1.367-1.844l.968-3.881a3 3 0 0 0 -2.186-3.636l-1.221-.3a7.944 7.944 0 0 0 -.216-1.806c1.756-1.378 5.31-3.149 11.555-2.422zm-14.191 1.2a6.037 6.037 0 0 1 .545 1.189v.014a5.972 5.972 0 0 1 .131 3.338l-.838 3.366c-4.01-3.5-4.929-8.669-5.14-11.035l1.608.4a5.948 5.948 0 0 1 3.694 2.729zm-3.692-9.651-4.176 1.044c4.2-5.94 5.31-12.991 5.587-16.822a5.944 5.944 0 0 1 1.508 2.685l1.451 5.823a5.945 5.945 0 0 1 -.126 3.341 5.981 5.981 0 0 1 -4.238 3.926zm17.872-1.513c-6.235.712-9.789-1.062-11.545-2.437a7.87 7.87 0 0 0 .215-1.8l1.223-.3a3 3 0 0 0 2.186-3.636l-.968-3.882a3.007 3.007 0 0 0 -3.639-2.188l-1.223.3a7.819 7.819 0 0 0 -1.037-1.492c.905-2.037 3.21-5.269 9.067-7.561.181 1.881 1 5.2 4.4 6.3a8.453 8.453 0 0 0 -.3 4.885 8 8 0 0 0 2.593 4.131c-2.523 2.6-1.685 5.918-.972 7.681z"/></svg>